PathFileType	4	(X/Y/Z)	Kaydara																																																																																																																									
DataRate	CameraRate	NumFrames	NumMarkers	Units	OrigDataRate	OrigDataStartFrame	OrigNumFrames																																																																																																																					
30	30	4	41	mm	30	307	373																																																																																																																					
Frame#	Time	NABA_LFHD			NABA_RFHD			NABA_LBHD			NABA_RBHD			NABA_LFTShould			NABA_RFTShould			NABA_LRRShould			NABA_RRRShould			NABA_T10			NABA_STRN			NABA_TRUN			NABA_LSHO			NABA_LUPA			NABA_LELB			NABA_LFRM			NABA_LWRA			NABA_LWRB			NABA_LFIN			NABA_RSHO			NABA_RUPA			NABA_RELB			NABA_RFRM			NABA_RWRA			NABA_RWRB			NABA_RFIN			NABA_LFWT			NABA_RFWT			NABA_LBWT			NABA_RBWT			NABA_LTHI			NABA_LKNE			NABA_LSHN			NABA_LANK			NABA_LHEE			NABA_LTOE			NABA_RTHI			NABA_RKNE			NABA_RSHN			NABA_RANK			NABA_RHEE			NABA_RTOE		
		X1	Y1	Z1	X2	Y2	Z2	X3	Y3	Z3	X4	Y4	Z4	X5	Y5	Z5	X6	Y6	Z6	X7	Y7	Z7	X8	Y8	Z8	X9	Y9	Z9	X10	Y10	Z10	X11	Y11	Z11	X12	Y12	Z12	X13	Y13	Z13	X14	Y14	Z14	X15	Y15	Z15	X16	Y16	Z16	X17	Y17	Z17	X18	Y18	Z18	X19	Y19	Z19	X20	Y20	Z20	X21	Y21	Z21	X22	Y22	Z22	X23	Y23	Z23	X24	Y24	Z24	X25	Y25	Z25	X26	Y26	Z26	X27	Y27	Z27	X28	Y28	Z28	X29	Y29	Z29	X30	Y30	Z30	X31	Y31	Z31	X32	Y32	Z32	X33	Y33	Z33	X34	Y34	Z34	X35	Y35	Z35	X36	Y36	Z36	X37	Y37	Z37	X38	Y38	Z38	X39	Y39	Z39	X40	Y40	Z40	X41	Y41	Z41
																																																																																																																												
234	10.197	297.75143	1408.573	443.55324	126.44153	1391.58722	441.37455	318.30315	1493.40286	351.81942	98.89459	1464.56512	375.28099	273.55885	1281.86783	255.72292	147.72569	1279.08508	255.06645	278.93431	1366.26511	160.51954	132.85303	1363.01147	165.70366	211.93171	1225.08598	47.97119	213.06534	1217.85492	292.2641	212.40091	1112.62291	319.26573	366.47984	1317.14569	223.68347	431.37951	1092.72095	194.44654	431.95576	991.92818	221.54507	424.62933	911.07208	203.35735	352.46948	770.69778	281.5992	424.98699	768.7674	288.54692	397.51652	715.5938	333.04043	64.26345	1317.27844	227.68238	-3.94002	1121.58646	152.88548	-17.53583	988.54752	200.78728	-12.66057	892.55882	215.50047	76.50387	781.53534	292.99263	4.22962	764.92722	304.71609	26.35323	733.34755	336.04557	333.01247	921.77757	225.49921	68.33091	925.1207	221.48361	286.94023	986.1409	53.85331	116.76649	1002.03201	48.93024	317.94861	623.05859	87.522	306.7914	474.22989	143.07934	240.19421	281.61596	167.05427	251.28035	130.84722	94.04294	187.20234	88.01681	39.09552	224.63432	53.06259	220.41035	51.15026	636.0112	109.07434	39.86095	483.15517	247.61002	44.42731	330.59299	140.87197	36.8496	225.80328	-33.26048	89.67726	227.89263	-110.41751	43.43851	93.46603	6.03692
235	10.23	301.29383	1405.0766	453.26881	129.80128	1390.62439	449.81743	323.72292	1490.52063	362.55352	103.76803	1464.68307	384.2955	277.17926	1281.05423	263.62667	151.74852	1279.15482	263.01113	283.13828	1366.21628	169.25217	136.96836	1363.92624	174.3498	215.24059	1226.16966	55.84775	216.53784	1217.24289	299.83028	215.39137	1111.89064	326.25961	370.31086	1316.04248	231.82005	434.25488	1091.58669	203.05109	434.55067	991.03012	230.50488	427.03945	910.09621	212.46098	355.06733	769.97055	291.04471	427.57088	767.97661	297.84155	400.16243	714.86374	342.41547	68.3496	1317.94769	236.02097	-0.44933	1122.70309	160.46824	-15.15986	989.80545	208.51849	-10.564	893.7796	223.88073	77.84718	783.19321	303.10999	5.3522	766.86203	314.28747	27.0493	735.5954	346.11195	335.19543	921.93817	232.08443	70.59806	926.26335	228.71506	288.70026	986.61591	60.43213	118.54349	1002.64694	55.73795	318.54996	623.7862	91.57791	307.591	474.60869	145.70378	240.95633	281.76376	168.59928	251.09234	131.5612	94.13016	186.82331	89.09796	39.69012	225.0543	52.99604	220.52643	51.95668	636.1385	123.14964	44.22128	486.76163	265.91381	47.89721	330.7819	165.16527	39.98897	217.53628	-3.62056	93.58747	213.78216	-80.96363	42.54606	92.07349	45.63468
236	10.263	304.66942	1401.83319	462.45621	132.94018	1389.93759	458.00964	328.7656	1487.86392	372.72125	108.36499	1465.03265	393.11535	280.55305	1280.68298	271.2396	155.17001	1279.41139	270.75809	286.66874	1366.31943	177.54583	140.56112	1364.80087	182.81439	217.77931	1227.22229	63.50947	219.72038	1216.97403	307.18225	218.05935	1111.47903	333.12225	373.72421	1315.51804	239.58979	436.72985	1090.80734	210.75836	436.72535	990.32967	238.36138	428.96706	909.44954	220.43184	357.10243	769.50165	299.40861	429.65115	767.41997	305.84526	402.32357	714.31313	350.56702	71.91686	1318.80524	244.28526	2.30297	1124.21341	167.9385	-13.52569	991.41685	215.86826	-9.49188	895.29785	231.54879	77.93581	784.44893	311.30646	5.42608	768.59879	322.39872	26.79819	737.32399	354.38301	337.16393	922.30431	238.40357	72.58141	927.2377	235.82296	290.00423	987.05673	66.64735	119.78631	1003.2946	62.64293	318.90249	624.58874	95.40148	308.25653	474.98707	148.12916	241.83903	282.02637	170.30954	250.96268	132.42437	94.52036	186.11183	90.37942	40.57571	225.55441	52.96462	220.84913	53.04096	636.39393	136.24444	49.04452	490.51628	282.84416	51.64247	329.67876	190.4282	42.29017	205.72697	29.48122	96.1101	195.55956	-47.85591	42.70196	88.0451	89.05
237	10.297	307.82303	1398.89816	471.17249	135.9931	1389.61563	466.06411	333.53825	1485.33737	382.3008	112.71022	1465.63477	401.77731	283.36639	1280.3186	278.64996	158.19401	1279.64035	278.46422	289.62471	1366.35391	185.41824	143.52178	1365.53787	191.1478	219.69013	1228.07037	71.0404	222.5246	1216.85791	314.46867	220.49881	1111.28181	340.01339	376.55838	1314.94659	246.88452	438.85551	1090.18349	217.56266	438.65772	989.6788	245.13533	430.52151	908.81706	227.22464	358.71281	768.79654	306.0981	431.14334	766.82068	312.78967	403.81508	713.82683	357.63428	74.92439	1319.64584	252.56525	4.02638	1125.82527	175.44994	-12.63301	992.99263	222.82621	-9.23469	896.77841	238.21251	77.23917	785.16342	318.24596	4.4873	769.73976	328.85838	25.53253	738.30223	360.80074	339.08302	922.49405	244.27345	74.73874	927.73941	242.35826	290.64913	987.69463	72.70159	120.60735	1004.05434	69.7182	318.90028	625.44033	99.01089	309.10162	475.53516	150.63024	242.50511	281.9998	171.47223	250.87374	133.31514	94.78443	185.38795	91.63576	41.33227	226.3599	53.00969	221.00103	54.42109	636.5778	148.45137	54.06766	494.02176	298.42497	55.16011	328.52486	215.79956	43.9325	192.75743	65.11482	97.03992	175.49398	-11.81563	44.41772	82.57894	135.27632
